<svg width="92" height="166" viewBox="0 0 92 166" fill="none" xmlns="http://www.w3.org/2000/svg">
<g opacity="0.5">
<path d="M19.8588 143.973C16.7598 144.838 13.6022 145.536 10.5329 146.698C9.81261 146.971 7.8565 147.267 7.44829 148.591C6.9315 150.269 8.08001 152.064 8.70435 152.967C10.5713 155.667 13.0231 157.622 15.1424 159.636C15.5671 160.039 16.8482 161.7 17.3688 161.478M7.44829 148.588C13.0785 150.932 19.1877 150.625 24.9361 150.502C36.604 150.252 65.8577 155.317 74.454 137.697C79.5744 127.202 79.1872 109.039 79.8095 96.0852C81.2609 65.881 84.7821 34.8401 84.826 4.52728" stroke="black" stroke-width="1.59" stroke-miterlimit="1.5" stroke-linecap="round" stroke-linejoin="round"/>
</g>
</svg>
