<svg width="225" height="23" viewBox="0 0 225 23" fill="none" xmlns="http://www.w3.org/2000/svg">
<path d="M106 -56.5C144.627 -56.5 179.578 -52.0262 204.857 -44.8037C217.5 -41.1915 227.695 -36.8991 234.718 -32.1553C241.758 -27.3996 245.5 -22.2691 245.5 -17C245.5 -11.7309 241.758 -6.60043 234.718 -1.84473C227.695 2.89914 217.5 7.1915 204.857 10.8037C179.578 18.0262 144.627 22.5 106 22.5C67.3731 22.5 32.4215 18.0262 7.14258 10.8037C-5.50017 7.1915 -15.695 2.89914 -22.7178 -1.84473C-29.758 -6.60043 -33.5 -11.7309 -33.5 -17C-33.5 -22.2691 -29.758 -27.3996 -22.7178 -32.1553C-15.695 -36.8991 -5.50017 -41.1915 7.14258 -44.8037C32.4215 -52.0262 67.3731 -56.5 106 -56.5Z" fill="white" stroke="#FFA585"/>
</svg>
