<svg width="193" height="193" viewBox="0 0 193 193" fill="none" xmlns="http://www.w3.org/2000/svg">
<path d="M146.468 110.326C149.552 110.906 150.687 103.789 151.397 80.0117C152.133 54.8421 151.38 49.2631 147.663 49.8708C142.563 50.7694 141.504 109.259 146.468 110.326Z" fill="#FFA585"/>
<path d="M35.4287 116.048C34.3549 125.378 35.8162 126.762 55.5971 135.206C76.0188 143.948 80.0605 144.819 82.0158 141.127C85.5337 134.419 80.8678 130.371 56.1476 118.298C37.9044 109.401 36.2212 109.162 35.4287 116.048Z" fill="#FFA585"/>
<path d="M73.4422 68.1587C72.5813 74.8571 73.633 77.454 80.6756 86.2776C101.666 112.372 114.59 132.677 116.004 119.604C116.618 114.273 113.216 109.02 89.6779 77.6802C76.584 60.4173 74.6528 59.2046 73.4422 68.1587Z" fill="#FFA585"/>
</svg>
