<svg width="77" height="77" viewBox="0 0 77 77" fill="none" xmlns="http://www.w3.org/2000/svg">
<g opacity="0.5">
<path fill-rule="evenodd" clip-rule="evenodd" d="M25.0983 25.3872C12.665 30.5549 12.1547 31.8417 16.9517 45.0216C21.1762 56.5441 23.6031 60.1875 26.4389 59.1553C26.601 59.0964 27.7994 59.0272 29.0983 58.9826C35.6128 58.8137 62.7281 46.5895 62.985 43.6821C63.1955 41.4033 57.9015 25.3457 55.5871 21.172C53.2261 16.9541 50.9056 16.2083 46.1645 18.0562C42.0986 19.6584 43.3489 21.1608 47.5081 19.647C50.614 18.5166 50.6705 18.5878 55.3446 31.2618C59.8222 43.3957 59.7411 43.0888 58.0447 44.2262C54.9464 46.302 35.3805 53.6375 27.0032 56.8396C25.6793 55.6392 25.6941 56.1843 20.625 44.694C15.7868 33.6701 15.7942 33.6062 23.3241 29.6727C28.5953 26.9283 29.5651 26.4836 35.5289 24.1294C41.0606 21.9326 41.9125 21.5001 41.7651 21.095C41.2859 19.8625 33.6474 21.8168 25.0983 25.3872ZM47.9608 22.235C47.3079 23.2984 46.017 26.3069 41.7866 36.1965C40.3855 39.4898 40.4666 39.4603 37.5173 38.668C33.0209 37.4907 29.2269 36.7306 26 35.4276C21.4125 33.58 18.7825 33.1609 18.3015 34.1923C18.0095 34.8186 23.0953 36.6072 30.2247 39.9765L33.329 41.4464C33.2775 41.557 29.9395 46.8398 28.8822 50.4055C28.1659 52.8072 29.7792 52.6177 30.6972 51.2742C31.6397 49.8301 32.9253 46.64 34.913 42.1851L36.2145 42.2314C38.2894 42.302 41.5964 40.5478 42.3989 38.9711C42.9682 37.8463 43.6533 37.2911 43.8303 37.7772C43.9581 38.1283 51.6277 41.6375 54.2554 42.6386C55.7436 43.198 59.4857 43.0594 55.4506 40.7966C52.5059 39.1768 46.8969 36.5387 45.0379 36.0531C44.5983 35.9378 44.2668 35.7832 44.3011 35.7095C47.2932 31.7454 49.7812 25.9767 50.2813 22.9808C50.9457 19.344 48.2921 21.7168 47.9608 22.235Z" fill="black"/>
</g>
</svg>
