<svg width="60" height="60" viewBox="0 0 60 60" fill="none" xmlns="http://www.w3.org/2000/svg">
<g opacity="0.5">
<path d="M34.0161 27.7643C34.7029 29.1854 35.1058 29.3512 36.3374 28.8064C39.5586 27.3616 34.7978 20.4929 31.2687 21.4877C30.1555 21.7956 28.2132 22.7904 30.5817 23.9509C31.9791 24.6141 33.116 25.8931 34.0161 27.7643Z" fill="black"/>
<path d="M31.6476 38.3989C26.2711 35.7462 25.2526 37.5936 25.2526 38.6595C25.2526 39.5832 24.4473 39.9621 22.4104 37.4515C18.8339 33.0461 18.4314 31.9329 20.3026 31.5302C23.9264 30.7486 24.0684 28.0722 20.7999 22.2456C18.384 17.9349 15.6602 16.1349 12.8653 16.9875C10.5915 17.6744 8.00985 21.464 7.41772 24.9931C6.77822 28.8301 8.24675 30.9855 8.88625 32.525C11.16 37.9015 19.0235 47.6362 22.5762 49.4362C30.4871 53.4627 39.1322 52.2785 38.6348 47.2098C38.3032 43.7518 36.2426 40.6727 31.6476 38.3989ZM30.9845 48.702C20.8946 48.5362 10.1415 34.1356 10.1415 26.3669C10.1415 22.0325 13.2444 16.5849 14.4287 18.7402C14.4524 18.7639 19.7577 27.5985 20.1603 29.1617C20.2787 29.6354 20.1604 29.7538 19.1419 30.0854C16.0628 31.1039 15.6603 32.6908 17.5078 36.4804C20.5631 42.7807 26.958 44.9597 27.3843 39.8911C27.6211 37.2147 29.3265 37.9015 33.353 43.1833C36.7874 47.7309 35.7689 48.773 30.9845 48.702Z" fill="black"/>
<path d="M30.0135 15.4483C27.716 16.5852 27.8106 17.13 30.3449 17.58C36.3136 18.6221 41.335 24.6145 41.335 30.7016C41.335 33.4254 43.5378 34.4675 44.9826 29.7542C46.9721 23.2407 35.8164 12.5587 30.0135 15.4483Z" fill="black"/>
<path d="M31.5055 8.57935C28.7344 9.57413 28.9713 10.6873 32.0267 10.9005C42.1165 11.6111 50.2169 22.6247 48.251 32.9514C47.801 35.3673 49.9088 36.4331 51.8984 32.2172C56.6117 22.2457 41.6902 4.9792 31.5055 8.57935Z" fill="black"/>
</g>
</svg>
