<svg width="30" height="30" viewBox="0 0 30 30" fill="none" xmlns="http://www.w3.org/2000/svg">
<path fill-rule="evenodd" clip-rule="evenodd" d="M25.748 13.376C25.5642 10.3862 21.745 3.07747 13.0869 3.31082C10.9689 3.36787 10.8358 7.04461 10.0551 9.00199C6.12015 8.72728 4.16429 11.3807 4.36625 14.2268C4.78284 20.0962 11.154 25.352 16.6463 25.0888C18.8727 24.9819 21.7115 24.3311 22.2812 20.9757C22.6975 18.5235 21.6578 18.0403 21.419 17.2258C22.7757 15.8637 24.3047 14.649 25.748 13.376Z" stroke="black" stroke-width="1.5" stroke-miterlimit="1.5" stroke-linecap="round" stroke-linejoin="round"/>
<path d="M10.1438 8.81775C9.60916 10.073 9.13522 11.3826 8.74097 12.6891" stroke="black" stroke-width="1.5" stroke-miterlimit="1.5" stroke-linecap="round" stroke-linejoin="round"/>
<path d="M21.4359 17.2266C20.3796 18.0573 19.2216 18.7621 18.165 19.5952" stroke="black" stroke-width="1.5" stroke-miterlimit="1.5" stroke-linecap="round" stroke-linejoin="round"/>
<path d="M5.15723 26.5412C6.44745 25.1734 7.47896 23.4943 8.65145 22.0163" stroke="black" stroke-width="1.5" stroke-miterlimit="1.5" stroke-linecap="round" stroke-linejoin="round"/>
<path d="M12.6317 3.987C12.4922 5.16493 12.9469 6.3158 13.4764 7.34068C14.8206 9.94166 17.5631 12.4255 20.5457 12.9248" stroke="black" stroke-width="1.5" stroke-miterlimit="1.5" stroke-linecap="round" stroke-linejoin="round"/>
</svg>
